HIERARCHY
ROOT Hips
{
    OFFSET   0.000000   0.000000   0.000000
    CHANNELS 6 Xposition Yposition Zposition Zrotation Xrotation Yrotation
    JOINT Chest
    {
        OFFSET   0.000000   8.007230   0.000000
        CHANNELS 3 Zrotation Xrotation Yrotation
        JOINT Chest2
        {
            OFFSET   0.000000  22.077100   0.000000
            CHANNELS 3 Zrotation Xrotation Yrotation
            JOINT Neck
            {
                OFFSET   0.000000  23.254700   0.000000
                CHANNELS 3 Zrotation Xrotation Yrotation
                JOINT Head
                {
                    OFFSET   0.000010  14.370000   1.956610
                    CHANNELS 3 Zrotation Xrotation Yrotation
                    End Site
                    {
                        OFFSET   0.000000  19.566000   0.000000
                    }
                }
            }
            JOINT LeftCollar
            {
                OFFSET   3.911900  19.017000  -0.467063
                CHANNELS 3 Zrotation Xrotation Yrotation
                JOINT LeftShoulder
                {
                    OFFSET  10.383700   0.000000   0.000000
                    CHANNELS 3 Zrotation Xrotation Yrotation
                    JOINT LeftElbow
                    {
                        OFFSET  26.662100   0.001671   0.000522
                        CHANNELS 3 Zrotation Xrotation Yrotation
                        JOINT LeftWrist
                        {
                            OFFSET  28.869000   0.000037  -0.000114
                            CHANNELS 3 Zrotation Xrotation Yrotation
                            JOINT LeftFinger0
                            {
                                OFFSET   2.044650  -2.323450   3.252850
                                CHANNELS 3 Zrotation Xrotation Yrotation
                                JOINT LeftFinger01
                                {
                                    OFFSET   3.088140   0.000000   0.000000
                                    CHANNELS 3 Zrotation Xrotation Yrotation
                                    JOINT LeftFinger02
                                    {
                                        OFFSET   2.639460   0.000000   0.000000
                                        CHANNELS 3 Zrotation Xrotation Yrotation
                                        End Site
                                        {
                                            OFFSET   2.582190   0.000000   0.000000
                                        }
                                    }
                                }
                            }
                            JOINT LeftFinger1
                            {
                                OFFSET   8.364480   0.000000   3.252850
                                CHANNELS 3 Zrotation Xrotation Yrotation
                                JOINT LeftFinger11
                                {
                                    OFFSET   4.646930   0.000000   0.000000
                                    CHANNELS 3 Zrotation Xrotation Yrotation
                                    JOINT LeftFinger12
                                    {
                                        OFFSET   2.323470   0.000000   0.000000
                                        CHANNELS 3 Zrotation Xrotation Yrotation
                                        End Site
                                        {
                                            OFFSET   2.273050   0.000000   0.000000
                                        }
                                    }
                                }
                            }
                            JOINT LeftFinger2
                            {
                                OFFSET   8.364490   0.000016   1.078090
                                CHANNELS 3 Zrotation Xrotation Yrotation
                                JOINT LeftFinger21
                                {
                                    OFFSET   5.111620   0.000000   0.000000
                                    CHANNELS 3 Zrotation Xrotation Yrotation
                                    JOINT LeftFinger22
                                    {
                                        OFFSET   2.788150   0.000013   0.000000
                                        CHANNELS 3 Zrotation Xrotation Yrotation
                                        End Site
                                        {
                                            OFFSET   2.727660   0.000000   0.000000
                                        }
                                    }
                                }
                            }
                            JOINT LeftFinger3
                            {
                                OFFSET   7.899780   0.000016  -1.078090
                                CHANNELS 3 Zrotation Xrotation Yrotation
                                JOINT LeftFinger31
                                {
                                    OFFSET   4.646930   0.000000   0.000000
                                    CHANNELS 3 Zrotation Xrotation Yrotation
                                    JOINT LeftFinger32
                                    {
                                        OFFSET   2.323470   0.000000   0.000000
                                        CHANNELS 3 Zrotation Xrotation Yrotation
                                        End Site
                                        {
                                            OFFSET   2.273050   0.000000   0.000000
                                        }
                                    }
                                }
                            }
                            JOINT LeftFinger4
                            {
                                OFFSET   7.435080   0.000000  -3.252850
                                CHANNELS 3 Zrotation Xrotation Yrotation
                                JOINT LeftFinger41
                                {
                                    OFFSET   3.717550   0.000000   0.000000
                                    CHANNELS 3 Zrotation Xrotation Yrotation
                                    JOINT LeftFinger42
                                    {
                                        OFFSET   1.858760   0.000000   0.000000
                                        CHANNELS 3 Zrotation Xrotation Yrotation
                                        End Site
                                        {
                                            OFFSET   1.818440   0.000000   0.000000
                                        }
                                    }
                                }
                            }
                        }
                    }
                }
            }
            JOINT RightCollar
            {
                OFFSET  -3.911900  19.017000  -0.467064
                CHANNELS 3 Zrotation Xrotation Yrotation
                JOINT RightShoulder
                {
                    OFFSET -10.383700   0.000000   0.000000
                    CHANNELS 3 Zrotation Xrotation Yrotation
                    JOINT RightElbow
                    {
                        OFFSET -26.662100   0.001633   0.000260
                        CHANNELS 3 Zrotation Xrotation Yrotation
                        JOINT RightWrist
                        {
                            OFFSET -28.869000  -0.000045  -0.000080
                            CHANNELS 3 Zrotation Xrotation Yrotation
                            JOINT RightFinger0
                            {
                                OFFSET  -2.044660  -2.323490   3.252850
                                CHANNELS 3 Zrotation Xrotation Yrotation
                                JOINT RightFinger01
                                {
                                    OFFSET  -3.088140   0.000000   0.000000
                                    CHANNELS 3 Zrotation Xrotation Yrotation
                                    JOINT RightFinger02
                                    {
                                        OFFSET  -2.639450   0.000000   0.000000
                                        CHANNELS 3 Zrotation Xrotation Yrotation
                                        End Site
                                        {
                                            OFFSET  -2.582190   0.000000   0.000000
                                        }
                                    }
                                }
                            }
                            JOINT RightFinger1
                            {
                                OFFSET  -8.364480   0.000000   3.252850
                                CHANNELS 3 Zrotation Xrotation Yrotation
                                JOINT RightFinger11
                                {
                                    OFFSET  -4.646920   0.000000   0.000000
                                    CHANNELS 3 Zrotation Xrotation Yrotation
                                    JOINT RightFinger12
                                    {
                                        OFFSET  -2.323470   0.000000   0.000000
                                        CHANNELS 3 Zrotation Xrotation Yrotation
                                        End Site
                                        {
                                            OFFSET  -2.273050   0.000000   0.000000
                                        }
                                    }
                                }
                            }
                            JOINT RightFinger2
                            {
                                OFFSET  -8.364480   0.000000   1.078090
                                CHANNELS 3 Zrotation Xrotation Yrotation
                                JOINT RightFinger21
                                {
                                    OFFSET  -5.111610   0.000000   0.000000
                                    CHANNELS 3 Zrotation Xrotation Yrotation
                                    JOINT RightFinger22
                                    {
                                        OFFSET  -2.788160   0.000000   0.000000
                                        CHANNELS 3 Zrotation Xrotation Yrotation
                                        End Site
                                        {
                                            OFFSET  -2.727660   0.000000   0.000000
                                        }
                                    }
                                }
                            }
                            JOINT RightFinger3
                            {
                                OFFSET  -7.899780   0.000000  -1.078090
                                CHANNELS 3 Zrotation Xrotation Yrotation
                                JOINT RightFinger31
                                {
                                    OFFSET  -4.646930   0.000000   0.000000
                                    CHANNELS 3 Zrotation Xrotation Yrotation
                                    JOINT RightFinger32
                                    {
                                        OFFSET  -2.323470   0.000000   0.000000
                                        CHANNELS 3 Zrotation Xrotation Yrotation
                                        End Site
                                        {
                                            OFFSET  -2.273050   0.000000   0.000000
                                        }
                                    }
                                }
                            }
                            JOINT RightFinger4
                            {
                                OFFSET  -7.435090   0.000000  -3.252850
                                CHANNELS 3 Zrotation Xrotation Yrotation
                                JOINT RightFinger41
                                {
                                    OFFSET  -3.717550   0.000000   0.000000
                                    CHANNELS 3 Zrotation Xrotation Yrotation
                                    JOINT RightFinger42
                                    {
                                        OFFSET  -1.858760   0.000000   0.000000
                                        CHANNELS 3 Zrotation Xrotation Yrotation
                                        End Site
                                        {
                                            OFFSET  -1.818440   0.000000   0.000000
                                        }
                                    }
                                }
                            }
                        }
                    }
                }
            }
        }
    }
    JOINT LeftHip
    {
        OFFSET   9.782990   0.000000   0.000000
        CHANNELS 3 Zrotation Xrotation Yrotation
        JOINT LeftKnee
        {
            OFFSET  -0.000063 -41.789100   0.001657
            CHANNELS 3 Zrotation Xrotation Yrotation
            JOINT LeftAnkle
            {
                OFFSET   0.000078 -41.133200  -0.000113
                CHANNELS 3 Zrotation Xrotation Yrotation
                JOINT LeftToe
                {
                    OFFSET   0.000000  -6.358970  14.674500
                    CHANNELS 3 Zrotation Xrotation Yrotation
                    End Site
                    {
                        OFFSET   0.000000   0.000000   3.913200
                    }
                }
            }
        }
    }
    JOINT RightHip
    {
        OFFSET  -9.782990   0.000000   0.000000
        CHANNELS 3 Zrotation Xrotation Yrotation
        JOINT RightKnee
        {
            OFFSET   0.000053 -41.789200   0.000277
            CHANNELS 3 Zrotation Xrotation Yrotation
            JOINT RightAnkle
            {
                OFFSET   0.000030 -41.133200  -0.000150
                CHANNELS 3 Zrotation Xrotation Yrotation
                JOINT RightToe
                {
                    OFFSET   0.000000  -6.358960  14.674500
                    CHANNELS 3 Zrotation Xrotation Yrotation
                    End Site
                    {
                        OFFSET   0.000000   0.000000   3.913200
                    }
                }
            }
        }
    }
}
MOTION
Frames: 4
Frame Time:   0.016667
  0.088306  89.583900  -1.209240  -3.318480 -11.001300  -2.157100   0.550753   6.789160   0.652556   1.033980  13.584000   1.252160   0.382991  -0.540270  -0.003153   0.629320  -1.095710   3.060390  -8.052880  -3.196790   0.127900 -71.524100  20.017600  -0.972238  -0.500920  -7.051310 -20.536500  14.494100  -7.026980   4.912340  40.833700  38.234300 -64.909600 -35.003400   0.000000   0.002185 -12.501700   0.001133   0.002125 -31.498300   4.803180  -7.781270 -26.038400  -0.005759  -0.009329 -18.226900  -0.004074  -0.004126 -29.791000  -0.935605   1.633750 -44.706500  -0.005469  -0.009580 -29.774500   0.002451  -0.000594 -28.785900  -0.906672   1.649930 -42.291800  -0.006515  -0.010191 -28.166300   0.003245  -0.005564 -33.419700  -1.037140   1.571250 -50.150800  -0.003623  -0.012461 -33.400500   0.007865  -0.001514  12.782900  -0.629064  10.632700  67.600500  13.918000  -3.313700   0.611914  -7.868050  11.502700 -14.822700  -5.170770   3.475400 -35.779500  23.141800  56.751800  29.788200  -0.005382  -0.009094   9.891500  -0.002789  -0.002261  35.788800   8.293460  11.314400  29.955000  -0.000258   0.001924  20.968500   0.005380   0.001993  27.080900   5.686380  10.967200  29.840300  -0.005185   0.003783  19.873600  -0.000284   0.004972  28.554100  -2.230000  -4.088770  38.006400   0.001546  -0.004490  25.312300  -0.002879   0.014131  35.991600  -2.740380  -3.766110  54.122600   0.007225  -0.003833  36.045600   0.013540   0.003253   2.804220  12.838700   5.053260   1.303040   0.061329   7.653030  -1.050330  -3.033800   1.852310  -0.000000   0.000000   0.000000   5.201630  10.881800   3.426040  -1.760550   3.956080  -7.320340  -0.849601  -4.816820  -2.186790  -0.000000   0.000000   0.000000
  0.083642  89.583900  -1.209140  -3.320130 -11.041000  -2.138830   0.551744   6.801600   0.664124   1.034470  13.609000   1.275360   0.391518  -0.503306  -0.003145   0.643247  -1.020680   3.085140  -8.052880  -3.196780   0.127902 -71.587400  20.111100  -1.039580  -0.486833  -7.126390 -20.452100  14.551800  -7.032330   4.916810  40.805600  38.253300 -64.967500 -35.040700   0.000000   0.002191 -12.520300   0.001127   0.002114 -31.558000   4.965470  -8.021220 -26.104700  -0.005754  -0.009318 -18.273300  -0.004078  -0.004123 -29.840000  -0.915601   1.597430 -44.779100  -0.005459  -0.009578 -29.822900   0.002451  -0.000567 -28.787000  -0.886699   1.613520 -42.389400  -0.006504  -0.010186 -28.231300   0.003245  -0.005553 -33.468200  -1.014780   1.536270 -50.222600  -0.003629  -0.012458 -33.448300   0.007857  -0.001491  12.788200  -0.637022  10.622500  67.639600  13.940100  -3.314190   0.612863  -7.884110  11.499300 -14.830200  -5.188750   3.506670 -35.776300  23.143400  56.764500  29.787400  -0.005386  -0.009084   9.891500  -0.002788  -0.002261  35.800700   8.304800  11.325200  29.966000  -0.000258   0.001923  20.976200   0.005378   0.001989  27.107800   5.681590  10.945900  29.972700  -0.005183   0.003773  19.961800  -0.000290   0.004966  28.556800  -2.212560  -4.056480  38.030500   0.001544  -0.004489  25.328400  -0.002886   0.014129  36.010300  -2.719870  -3.735640  54.149000   0.007223  -0.003833  36.063200   0.013541   0.003255   2.816380  12.877700   5.060990   1.301540   0.049502   7.640550  -1.053740  -3.017250   1.835290  -0.000000   0.000000   0.000000   5.211490  10.915400   3.431670  -1.757950   3.970030  -7.334720  -0.849362  -4.827400  -2.195710   0.000000   0.000000  -0.000000
  0.076626  89.583800  -1.209030  -3.323100 -11.108600  -2.111320   0.553594   6.822420   0.680611   1.036010  13.650700   1.308340   0.405974  -0.438704  -0.003127   0.666910  -0.889583   3.140350  -8.052880  -3.196740   0.127912 -71.706400  20.258600  -1.146920  -0.451739  -7.237760 -20.325400  14.639100  -7.042090   4.921330  40.835600  38.341000 -65.142500 -35.077900   0.000000   0.002197 -12.538900   0.001118   0.002088 -31.656500   5.220880  -8.396270 -26.214600  -0.005749  -0.009295 -18.350200  -0.004081  -0.004110 -29.919800  -0.895598   1.555800 -44.897900  -0.005432  -0.009572 -29.902100   0.002451  -0.000502 -28.788000  -0.864615   1.573190 -42.549600  -0.006473  -0.010173 -28.338100   0.003244  -0.005526 -33.546800  -0.992227   1.496030 -50.339700  -0.003643  -0.012450 -33.526200   0.007836  -0.001435  12.797100  -0.648928  10.612300  67.702400  13.970900  -3.314810   0.607200  -7.900180  11.496000 -14.835200  -5.209540   3.563140 -35.775000  23.149000  56.784100  29.783000  -0.005390  -0.009074   9.891500  -0.002786  -0.002261  35.810600   8.321460  11.342400  29.976900  -0.000260   0.001916  20.983800   0.005373   0.001977  27.156600   5.672620  10.906800  30.217400  -0.005174   0.003751  20.124800  -0.000301   0.004951  28.560900  -2.185230  -4.005970  38.054700   0.001538  -0.004487  25.344400  -0.002907   0.014123  36.030500  -2.687350  -3.688280  54.175500   0.007216  -0.003833  36.080900   0.013543   0.003262   2.836720  12.937500   5.069150   1.300030   0.037674   7.622430  -1.059950  -3.000710   1.810150  -0.000000   0.000000  -0.000000   5.227780  10.976500   3.437610  -1.754510   3.983850  -7.364260  -0.849371  -4.844330  -2.204650   0.000000   0.000000   0.000000
  0.071887  89.583700  -1.209040  -3.326460 -11.165900  -2.095890   0.555335   6.839300   0.688715   1.038380  13.684600   1.324260   0.418049  -0.380985  -0.003108   0.686686  -0.772523   3.206440  -8.056690  -3.191400   0.133861 -71.833100  20.351600  -1.219270  -0.400216  -7.301770 -20.253600  14.686800  -7.046990   4.904790  41.014400  38.582400 -65.423500 -35.069200   0.000000   0.002186 -12.534600   0.001113   0.002052 -31.737000   5.382320  -8.625070 -26.299200  -0.005754  -0.009266 -18.409500  -0.004075  -0.004084 -29.981300  -0.895635   1.549610 -44.990200  -0.005393  -0.009558 -29.963500   0.002451  -0.000408 -28.788000  -0.862155   1.568610 -42.675400  -0.006422  -0.010149 -28.421900   0.003242  -0.005485 -33.608100  -0.992011   1.489890 -50.431600  -0.003666  -0.012440 -33.587400   0.007805  -0.001350  12.804800  -0.655744  10.612900  67.748700  13.980600  -3.314900   0.592602  -7.896300  11.524900 -14.821500  -5.212240   3.622030 -35.781600  23.161400  56.797100  29.773300  -0.005386  -0.009099   9.887560  -0.002783  -0.002252  35.806800   8.330180  11.354200  29.976300  -0.000270   0.001896  20.983400   0.005367   0.001954  27.205700   5.663110  10.866600  30.470500  -0.005148   0.003721  20.293400  -0.000311   0.004934  28.563500  -2.167000  -3.972470  38.049600   0.001531  -0.004486  25.341000  -0.002940   0.014116  36.029500  -2.664830  -3.657490  54.171400   0.007203  -0.003831  36.078100   0.013545   0.003273   2.854300  12.968900   5.069190   1.299450   0.073310   7.612300  -1.067970  -3.010330   1.796630   0.000000   0.000000  -0.000000   5.242120  11.034900   3.432170  -1.752450   3.983480  -7.402380  -0.859113  -4.859160  -2.184570   0.000000   0.000000   0.000000
